# Blender v2.79 (sub 0) OBJ File: 'Editable low poly asset (Asset Only).blend'
# www.blender.org
mtllib rock.mtl
o Cube.014_Cube.018
v -38.867847 0.992308 2.388343
v -42.155121 5.907425 3.599668
v -41.607559 5.008433 1.838622
v -40.597050 5.907425 2.235913
v -41.376751 5.907425 5.509115
v -42.345150 5.907425 4.476799
v -38.307976 3.365572 2.553479
v -39.888573 5.907425 2.211042
v -40.993870 0.992308 5.592066
v -42.275307 0.992308 4.154426
v -42.456963 3.714597 4.992897
v -42.133881 3.687747 5.345082
v -40.246700 0.992308 5.407611
v -40.095234 5.907425 5.676537
v -39.194637 5.907425 4.146245
v -38.625557 4.835837 4.019360
v -41.766144 3.738977 1.804265
v -40.472832 0.992308 2.084461
v -42.107182 0.992308 3.378400
v -39.794853 5.907425 4.584925
v -40.359127 5.907425 3.991787
v -42.345150 5.907425 4.476799
v -42.345150 5.907425 4.476799
v -42.155121 5.907425 3.599668
v -42.155121 5.907425 3.599668
v -41.607559 5.008433 1.838622
v -41.607559 5.008433 1.838622
v -40.597050 5.907425 2.235913
v -40.597050 5.907425 2.235913
v -40.095234 5.907425 5.676537
v -40.095234 5.907425 5.676537
v -41.376751 5.907425 5.509115
v -41.376751 5.907425 5.509115
v -42.456963 3.714597 4.992897
v -42.456963 3.714597 4.992897
v -38.867847 0.992308 2.388343
v -38.867847 0.992308 2.388343
v -38.307976 3.365572 2.553479
v -38.307976 3.365572 2.553479
v -39.888573 5.907425 2.211042
v -39.888573 5.907425 2.211042
v -39.194637 5.907425 4.146245
v -39.194637 5.907425 4.146245
v -42.107182 0.992308 3.378400
v -42.107182 0.992308 3.378400
v -42.275307 0.992308 4.154426
v -42.275307 0.992308 4.154426
v -42.133881 3.687747 5.345082
v -42.133881 3.687747 5.345082
v -40.993870 0.992308 5.592066
v -40.993870 0.992308 5.592066
v -40.246700 0.992308 5.407611
v -40.246700 0.992308 5.407611
v -38.625557 4.835837 4.019360
v -41.766144 3.738977 1.804265
v -41.766144 3.738977 1.804265
v -40.472832 0.992308 2.084461
v -40.472832 0.992308 2.084461
v -39.794853 5.907425 4.584925
vt 0.116307 0.147998
vt 0.022480 0.186440
vt 0.027441 0.003282
vt 0.290708 0.164598
vt 0.159370 0.163745
vt 0.263890 0.110899
vt 0.239436 0.239126
vt 0.267662 0.307827
vt 0.166844 0.441437
vt 0.290440 0.850617
vt 0.331277 0.742032
vt 0.379371 0.850829
vt 0.238818 0.596222
vt 0.331277 0.742032
vt 0.297346 0.746861
vt 0.059389 0.773700
vt 0.000102 0.587055
vt 0.171434 0.596194
vt 0.474852 0.890327
vt 0.379371 0.850829
vt 0.331277 0.742032
vt 0.349790 0.999898
vt 0.290440 0.850617
vt 0.379371 0.850829
vt 0.290708 0.164598
vt 0.289173 0.053742
vt 0.518461 0.339834
vt 0.343828 0.586847
vt 0.166844 0.441437
vt 0.518461 0.339834
vt 0.297346 0.746861
vt 0.224943 0.883081
vt 0.059389 0.773700
vt 0.204795 0.029313
vt 0.263890 0.110899
vt 0.159370 0.163745
vt 0.116307 0.147998
vt 0.027441 0.003282
vt 0.429092 0.990788
vt 0.239436 0.239126
vt 0.239436 0.239126
vt 0.000102 0.269474
vt 0.022480 0.186440
vt 0.116307 0.147998
vt 0.159370 0.163745
vt 0.297346 0.746861
vt 0.415523 0.587051
vt 0.415523 0.587051
vt 0.482237 0.589123
vt 0.224943 0.883081
vt 0.263890 0.110899
vt 0.381737 0.000102
vt 0.267662 0.307827
vt 0.555654 0.415782
vt 0.431078 0.586847
vt 0.171434 0.596194
vt 0.238818 0.596222
vt 0.290440 0.850617
vt 0.067584 0.849656
vt 0.289173 0.053742
vt 0.474852 0.890327
vt 0.267662 0.307827
vn -0.4490 0.7315 -0.5130
vn 0.8283 0.4751 -0.2970
vn 0.2061 0.0053 -0.9785
vn 0.1859 0.0244 -0.9822
vn 0.2013 0.0099 -0.9795
vn -0.7154 0.1944 0.6711
vn -0.7234 -0.2469 0.6448
vn -0.5817 -0.3489 -0.7348
vn -0.1185 -0.0393 0.9922
vn -0.1295 -0.0291 0.9911
vn -0.0794 -0.0258 0.9965
vn 0.0000 1.0000 0.0000
vn 0.6855 -0.0045 0.7280
vn 0.7786 0.0654 0.6241
vn 0.8538 -0.1455 0.4999
vn 0.0000 -1.0000 0.0000
vn -0.9773 0.0000 -0.2117
vn -0.9720 0.0196 -0.2342
vn -0.9674 0.0342 -0.2509
vn 0.8830 -0.2280 0.4102
vn 0.2187 0.0146 -0.9757
vn 0.3834 -0.0229 -0.9233
vn 0.0282 0.1805 -0.9832
vn 0.1140 0.0869 -0.9897
vn 0.2355 0.1870 0.9537
vn 0.1025 0.0948 0.9902
vn 0.5766 0.2128 0.7888
vn 0.9632 -0.0442 0.2650
vn -0.9274 0.1254 -0.3524
vn 0.8838 -0.2366 0.4036
g Cube.014_Cube.018_Rock
usemtl Rock
s 1
f 28/1/1 26/2/1 25/3/1
f 54/4/2 41/5/2 42/6/2
f 38/7/3 36/8/4 57/9/5
f 23/10/6 48/11/6 33/12/6
f 47/13/7 49/14/7 35/15/7
f 56/16/8 58/17/8 45/18/8
f 30/19/9 32/20/10 12/21/11
f 21/22/12 22/23/12 5/24/12
f 16/25/13 59/26/14 13/27/15
f 44/28/16 18/29/16 53/30/16
f 11/31/17 2/32/18 17/33/19
f 21/34/12 15/35/12 8/36/12
f 21/34/12 4/37/12 24/38/12
f 5/24/12 20/39/12 21/22/12
f 13/27/15 7/40/20 16/25/13
f 54/4/2 39/41/2 41/5/2
f 57/9/5 55/42/21 38/7/3
f 55/42/21 27/43/22 29/44/23
f 40/45/24 55/42/21 29/44/23
f 40/45/24 38/7/3 55/42/21
f 23/10/6 34/46/6 48/11/6
f 47/13/7 50/47/7 49/14/7
f 51/48/25 52/49/26 12/21/11
f 52/49/26 30/19/9 12/21/11
f 21/22/12 24/50/12 22/23/12
f 43/51/27 59/26/14 16/25/13
f 59/26/14 31/52/28 13/27/15
f 37/53/16 53/30/16 18/29/16
f 53/30/16 9/54/16 46/55/16
f 44/28/16 53/30/16 46/55/16
f 19/56/17 10/57/17 11/31/17
f 11/31/17 6/58/17 2/32/18
f 2/32/18 3/59/29 17/33/19
f 17/33/19 19/56/17 11/31/17
f 21/34/12 20/60/12 15/35/12
f 21/34/12 8/36/12 4/37/12
f 5/24/12 14/61/12 20/39/12
f 13/27/15 1/62/30 7/40/20
