# Blender v2.79 (sub 0) OBJ File: 'car.blend'
# www.blender.org
mtllib car.mtl
o CAR_03
v -25.912399 -5.750541 119.041245
v -27.915573 6.961802 119.041245
v -27.915575 6.961806 86.276505
v -25.912399 -5.750537 86.276505
v -18.439690 21.840219 119.041237
v -18.439692 21.840225 86.276505
v 12.385009 -0.519985 86.276505
v 12.385009 -5.750537 86.276505
v 23.909603 -0.519985 86.276505
v 23.909603 -5.750537 86.276505
v 50.590622 -0.383335 86.276505
v 50.590622 -5.750537 86.276505
v 12.385009 21.944437 86.276505
v 23.909603 8.388711 86.276505
v 50.590622 1.001154 86.276505
v 50.590622 -0.383339 119.041237
v 50.590622 -5.750541 119.041237
v 50.590622 1.001150 119.041237
v 23.909605 -0.519989 119.041237
v 23.909605 -5.750541 119.041237
v 12.385011 -0.519989 119.041237
v 12.385011 -5.750541 119.041237
v 23.909605 8.388708 119.041237
v 12.385011 21.944433 119.041237
v 36.770744 -5.617475 87.864754
v 41.398129 -5.617475 87.864754
v 41.119064 -4.121799 87.864754
v 41.398129 -5.617474 85.245186
v 41.119061 -4.121799 85.245186
v 36.770744 -5.617474 85.245186
v 40.315525 -2.806524 87.864754
v 40.315525 -2.806524 85.245186
v 39.084435 -1.830291 87.864754
v 39.084435 -1.830291 85.245186
v 37.574280 -1.310848 87.864754
v 37.574280 -1.310848 85.245186
v 35.967209 -1.310848 87.864754
v 35.967205 -1.310848 85.245186
v 34.457050 -1.830291 87.864754
v 34.457050 -1.830291 85.245186
v 33.225964 -2.806524 87.864754
v 33.225964 -2.806524 85.245186
v 32.422424 -4.121799 87.864754
v 32.422424 -4.121799 85.245186
v 32.143360 -5.617475 87.864754
v 32.143360 -5.617474 85.245186
v 32.422424 -7.113150 87.864754
v 32.422424 -7.113150 85.245186
v 33.225964 -8.428425 87.864754
v 33.225964 -8.428426 85.245186
v 34.457050 -9.404658 87.864754
v 34.457050 -9.404658 85.245186
v 35.967209 -9.924101 87.864754
v 35.967205 -9.924101 85.245186
v 37.574280 -9.924101 87.864754
v 37.574280 -9.924101 85.245186
v 39.084435 -9.404658 87.864754
v 39.084435 -9.404658 85.245186
v 40.315525 -8.428425 87.864754
v 40.315525 -8.428426 85.245186
v 41.119064 -7.113150 87.864754
v 41.119061 -7.113150 85.245186
v 36.770748 -5.617478 120.054863
v 41.398132 -5.617478 120.054863
v 41.119068 -4.121803 120.054863
v 41.398132 -5.617478 117.435295
v 41.119068 -4.121802 117.435295
v 36.770748 -5.617478 117.435295
v 40.315533 -2.806528 120.054863
v 40.315533 -2.806527 117.435295
v 39.084442 -1.830295 120.054863
v 39.084442 -1.830294 117.435295
v 37.574287 -1.310852 120.054863
v 37.574287 -1.310852 117.435295
v 35.967213 -1.310852 120.054863
v 35.967213 -1.310852 117.435295
v 34.457058 -1.830295 120.054863
v 34.457058 -1.830294 117.435295
v 33.225967 -2.806528 120.054863
v 33.225967 -2.806527 117.435295
v 32.422432 -4.121803 120.054863
v 32.422432 -4.121802 117.435295
v 32.143368 -5.617478 120.054863
v 32.143364 -5.617478 117.435295
v 32.422432 -7.113154 120.054863
v 32.422432 -7.113153 117.435295
v 33.225967 -8.428430 120.054863
v 33.225967 -8.428429 117.435295
v 34.457058 -9.404662 120.054863
v 34.457058 -9.404662 117.435295
v 35.967213 -9.924106 120.054863
v 35.967213 -9.924105 117.435295
v 37.574287 -9.924106 120.054863
v 37.574287 -9.924105 117.435295
v 39.084442 -9.404662 120.054863
v 39.084442 -9.404662 117.435295
v 40.315533 -8.428430 120.054863
v 40.315533 -8.428429 117.435295
v 41.119068 -7.113154 120.054863
v 41.119068 -7.113153 117.435295
v -15.243518 -5.617472 87.864754
v -10.616134 -5.617472 87.864754
v -10.895199 -4.121797 87.864754
v -10.616135 -5.617472 85.245178
v -10.895200 -4.121796 85.245178
v -15.243518 -5.617472 85.245178
v -11.698736 -2.806522 87.864754
v -11.698736 -2.806521 85.245178
v -12.929826 -1.830289 87.864754
v -12.929826 -1.830288 85.245178
v -14.439981 -1.310846 87.864754
v -14.439981 -1.310846 85.245178
v -16.047054 -1.310846 87.864754
v -16.047054 -1.310846 85.245178
v -17.557209 -1.830289 87.864754
v -17.557211 -1.830288 85.245186
v -18.788300 -2.806522 87.864754
v -18.788300 -2.806521 85.245186
v -19.591837 -4.121797 87.864754
v -19.591837 -4.121796 85.245186
v -19.870901 -5.617472 87.864754
v -19.870903 -5.617472 85.245186
v -19.591837 -7.113148 87.864754
v -19.591837 -7.113148 85.245186
v -18.788300 -8.428423 87.864754
v -18.788300 -8.428423 85.245186
v -17.557209 -9.404655 87.864754
v -17.557211 -9.404656 85.245186
v -16.047054 -9.924099 87.864754
v -16.047054 -9.924099 85.245186
v -14.439981 -9.924099 87.864754
v -14.439981 -9.924099 85.245178
v -12.929826 -9.404655 87.864754
v -12.929826 -9.404656 85.245178
v -11.698736 -8.428423 87.864754
v -11.698736 -8.428423 85.245178
v -10.895199 -7.113148 87.864754
v -10.895200 -7.113148 85.245178
v -15.243512 -5.617476 120.054863
v -10.616128 -5.617476 120.054863
v -10.895193 -4.121800 120.054863
v -10.616128 -5.617476 117.435295
v -10.895194 -4.121800 117.435295
v -15.243512 -5.617476 117.435295
v -11.698730 -2.806525 120.054863
v -11.698730 -2.806525 117.435295
v -12.929820 -1.830292 120.054863
v -12.929820 -1.830292 117.435295
v -14.439975 -1.310850 120.054863
v -14.439976 -1.310849 117.435295
v -16.047049 -1.310850 120.054863
v -16.047049 -1.310849 117.435295
v -17.557203 -1.830292 120.054863
v -17.557205 -1.830292 117.435295
v -18.788294 -2.806525 120.054863
v -18.788294 -2.806525 117.435295
v -19.591831 -4.121800 120.054863
v -19.591831 -4.121800 117.435295
v -19.870895 -5.617476 120.054863
v -19.870897 -5.617476 117.435295
v -19.591831 -7.113152 120.054863
v -19.591831 -7.113152 117.435295
v -18.788294 -8.428428 120.054863
v -18.788294 -8.428427 117.435295
v -17.557203 -9.404660 120.054863
v -17.557205 -9.404659 117.435295
v -16.047049 -9.924103 120.054863
v -16.047049 -9.924102 117.435295
v -14.439975 -9.924103 120.054863
v -14.439976 -9.924102 117.435295
v -12.929820 -9.404660 120.054863
v -12.929820 -9.404659 117.435295
v -11.698730 -8.428428 120.054863
v -11.698730 -8.428427 117.435295
v -10.895193 -7.113152 120.054863
v -10.895194 -7.113152 117.435295
vt 0.819959 0.724253
vt 0.936957 0.465065
vt 0.937281 0.723456
vt 0.672066 0.724202
vt 0.818802 0.463778
vt 0.701699 0.007182
vt 0.350750 0.025724
vt 0.351319 0.006094
vt 0.249387 0.007882
vt 0.249148 0.028836
vt 0.006988 0.004679
vt 0.629917 0.223666
vt 0.714983 0.107421
vt 0.249402 0.118137
vt 0.008333 0.062312
vt 0.007404 0.027090
vt 0.736277 0.993165
vt 0.777560 0.738150
vt 0.775265 0.991669
vt 0.715679 0.993999
vt 0.735947 0.737021
vt 0.715692 0.235611
vt 0.473695 0.265389
vt 0.472861 0.236027
vt 0.382455 0.235194
vt 0.380789 0.261639
vt 0.027629 0.235611
vt 0.714858 0.289594
vt 0.714858 0.259016
vt 0.472861 0.348401
vt 0.093805 0.451773
vt 0.009035 0.336640
vt 0.003384 0.462434
vt 0.251499 0.727861
vt 0.003383 0.725216
vt 0.251169 0.461442
vt 0.434860 0.724885
vt 0.662055 0.463095
vt 0.434529 0.461772
vt 0.426265 0.996479
vt 0.704383 0.735681
vt 0.704714 0.996148
vt 0.328630 0.996479
vt 0.424942 0.734358
vt 0.004372 0.996810
vt 0.332929 0.734358
vt 0.874570 0.269014
vt 0.912710 0.269014
vt 0.910410 0.281342
vt 0.782120 0.170667
vt 0.785340 0.176210
vt 0.782120 0.176210
vt 0.875706 0.873703
vt 0.837565 0.873703
vt 0.873406 0.861375
vt 0.903787 0.292183
vt 0.785340 0.170667
vt 0.788601 0.176210
vt 0.866783 0.850534
vt 0.893640 0.300229
vt 0.788601 0.170667
vt 0.791926 0.176210
vt 0.856636 0.842488
vt 0.881193 0.304510
vt 0.791926 0.170667
vt 0.795305 0.176210
vt 0.844188 0.838207
vt 0.867947 0.304510
vt 0.735765 0.170667
vt 0.739165 0.176210
vt 0.735765 0.176210
vt 0.830942 0.838207
vt 0.855500 0.300229
vt 0.739165 0.170667
vt 0.742544 0.176210
vt 0.818495 0.842488
vt 0.845353 0.292183
vt 0.742544 0.170667
vt 0.745869 0.176210
vt 0.808348 0.850534
vt 0.838730 0.281342
vt 0.745869 0.170667
vt 0.749130 0.176210
vt 0.799100 0.855601
vt 0.836430 0.269014
vt 0.749130 0.170667
vt 0.752350 0.176210
vt 0.794175 0.869503
vt 0.838730 0.256686
vt 0.752350 0.170667
vt 0.755569 0.176210
vt 0.793588 0.886818
vt 0.845353 0.245845
vt 0.755569 0.170667
vt 0.758831 0.176210
vt 0.808348 0.896872
vt 0.855500 0.237799
vt 0.758831 0.170667
vt 0.762155 0.176210
vt 0.818495 0.904918
vt 0.867947 0.233517
vt 0.765535 0.170667
vt 0.765535 0.176210
vt 0.830942 0.909200
vt 0.881193 0.233517
vt 0.768935 0.170667
vt 0.768935 0.176210
vt 0.844188 0.909200
vt 0.893640 0.237799
vt 0.772314 0.176210
vt 0.856636 0.904918
vt 0.903787 0.245845
vt 0.772314 0.170667
vt 0.775639 0.176210
vt 0.866783 0.896872
vt 0.910410 0.256686
vt 0.778901 0.170667
vt 0.778901 0.176210
vt 0.873406 0.886031
vt 0.774754 0.349014
vt 0.812894 0.349014
vt 0.810594 0.361342
vt 0.911920 0.170849
vt 0.914942 0.176051
vt 0.911920 0.176051
vt 0.912710 0.347244
vt 0.874570 0.347244
vt 0.910410 0.334916
vt 0.803971 0.372183
vt 0.914942 0.170849
vt 0.918003 0.176051
vt 0.903787 0.324075
vt 0.793824 0.380229
vt 0.918003 0.170849
vt 0.921123 0.176051
vt 0.893640 0.316028
vt 0.781377 0.384510
vt 0.921123 0.170849
vt 0.924295 0.176051
vt 0.881193 0.311747
vt 0.768131 0.384510
vt 0.924295 0.170849
vt 0.927487 0.176051
vt 0.867947 0.311747
vt 0.755684 0.380229
vt 0.927487 0.170849
vt 0.930658 0.176051
vt 0.855500 0.316028
vt 0.745537 0.372183
vt 0.930658 0.170849
vt 0.933779 0.176051
vt 0.845353 0.324075
vt 0.738914 0.361342
vt 0.877895 0.170849
vt 0.880956 0.176051
vt 0.877895 0.176051
vt 0.838730 0.334916
vt 0.736614 0.349014
vt 0.880956 0.170849
vt 0.883978 0.176051
vt 0.836430 0.347244
vt 0.738914 0.336686
vt 0.887000 0.170849
vt 0.887000 0.176051
vt 0.838730 0.359571
vt 0.745537 0.325845
vt 0.890061 0.176051
vt 0.845353 0.370412
vt 0.755684 0.317799
vt 0.890061 0.170849
vt 0.893181 0.176051
vt 0.855500 0.378459
vt 0.768131 0.313517
vt 0.893181 0.170849
vt 0.896353 0.176051
vt 0.867947 0.382740
vt 0.781377 0.313517
vt 0.896353 0.170849
vt 0.899545 0.176051
vt 0.881193 0.382740
vt 0.793824 0.317799
vt 0.899545 0.170849
vt 0.902717 0.176051
vt 0.893640 0.378459
vt 0.803971 0.325845
vt 0.905837 0.170849
vt 0.905837 0.176051
vt 0.903787 0.370412
vt 0.810594 0.336686
vt 0.908898 0.176051
vt 0.910410 0.359571
vt 0.908898 0.170849
vt 0.834570 0.790473
vt 0.872710 0.790473
vt 0.870410 0.802801
vt 0.849958 0.210853
vt 0.853277 0.216567
vt 0.849958 0.216567
vt 0.814934 0.279852
vt 0.777440 0.272856
vt 0.814934 0.267311
vt 0.863787 0.813642
vt 0.853277 0.210853
vt 0.856639 0.216567
vt 0.810411 0.255439
vt 0.853640 0.821689
vt 0.856639 0.210853
vt 0.860067 0.216567
vt 0.801912 0.245668
vt 0.841193 0.825970
vt 0.860067 0.210853
vt 0.863550 0.216567
vt 0.790462 0.239177
vt 0.827947 0.825970
vt 0.863550 0.210853
vt 0.867056 0.216567
vt 0.777440 0.236747
vt 0.815500 0.821688
vt 0.870539 0.210853
vt 0.870539 0.216567
vt 0.764419 0.238673
vt 0.805353 0.813642
vt 0.873967 0.216567
vt 0.752968 0.244722
vt 0.798730 0.802801
vt 0.812589 0.210853
vt 0.815951 0.216567
vt 0.812589 0.216567
vt 0.744469 0.254164
vt 0.796430 0.790473
vt 0.815951 0.210853
vt 0.819270 0.216567
vt 0.739947 0.265861
vt 0.798730 0.778146
vt 0.819270 0.210853
vt 0.822588 0.216567
vt 0.739947 0.278401
vt 0.805353 0.767305
vt 0.822588 0.210853
vt 0.825951 0.216567
vt 0.744469 0.290273
vt 0.815500 0.759258
vt 0.825951 0.210853
vt 0.829378 0.216567
vt 0.752968 0.300044
vt 0.827947 0.754977
vt 0.832861 0.210853
vt 0.832861 0.216567
vt 0.764419 0.306536
vt 0.841193 0.754977
vt 0.836367 0.216567
vt 0.777440 0.308966
vt 0.853640 0.759258
vt 0.836367 0.210853
vt 0.839850 0.216567
vt 0.790462 0.307040
vt 0.863787 0.767305
vt 0.839850 0.210853
vt 0.843278 0.216567
vt 0.801912 0.300991
vt 0.870410 0.778146
vt 0.846640 0.210853
vt 0.846640 0.216567
vt 0.810411 0.291549
vt 0.939232 0.958599
vt 0.977372 0.958599
vt 0.975072 0.970927
vt 0.841277 0.171095
vt 0.843765 0.175379
vt 0.841277 0.175379
vt 0.874039 0.955162
vt 0.835899 0.955162
vt 0.871739 0.942835
vt 0.968449 0.981768
vt 0.843765 0.171095
vt 0.846285 0.175379
vt 0.865116 0.931994
vt 0.958302 0.989815
vt 0.846285 0.171095
vt 0.848854 0.175379
vt 0.854969 0.923947
vt 0.945855 0.994096
vt 0.848854 0.171095
vt 0.851466 0.175379
vt 0.842522 0.919666
vt 0.932609 0.994096
vt 0.851466 0.171095
vt 0.854094 0.175379
vt 0.829276 0.919666
vt 0.920162 0.989815
vt 0.854094 0.171095
vt 0.856705 0.175379
vt 0.816828 0.923947
vt 0.910015 0.981768
vt 0.856705 0.171095
vt 0.859274 0.175379
vt 0.806681 0.931994
vt 0.903392 0.970927
vt 0.813264 0.171095
vt 0.815784 0.175379
vt 0.813264 0.175379
vt 0.800058 0.942835
vt 0.901092 0.958599
vt 0.815784 0.171095
vt 0.818272 0.175379
vt 0.797758 0.955162
vt 0.903392 0.946272
vt 0.820760 0.171095
vt 0.820760 0.175379
vt 0.800058 0.967490
vt 0.910015 0.935431
vt 0.823280 0.175379
vt 0.806681 0.978331
vt 0.920162 0.927384
vt 0.825849 0.171095
vt 0.825849 0.175379
vt 0.816828 0.986378
vt 0.932609 0.923103
vt 0.828461 0.171095
vt 0.828461 0.175379
vt 0.829276 0.990659
vt 0.945855 0.923103
vt 0.831089 0.171095
vt 0.831089 0.175379
vt 0.842522 0.990659
vt 0.958302 0.927384
vt 0.833700 0.175379
vt 0.854969 0.986378
vt 0.968449 0.935431
vt 0.833700 0.171095
vt 0.836269 0.175379
vt 0.865116 0.978331
vt 0.975072 0.946272
vt 0.836269 0.171095
vt 0.838789 0.175379
vt 0.871739 0.967490
vt 0.838789 0.171095
vt 0.671743 0.461645
vt 0.351377 0.222786
vt 0.715611 0.737068
vt 0.372872 0.453465
vt 0.663048 0.724885
vt 0.003710 0.733366
vt 0.795305 0.170667
vt 0.762155 0.170667
vt 0.775639 0.170667
vt 0.933779 0.170849
vt 0.883978 0.170849
vt 0.902717 0.170849
vt 0.867056 0.210853
vt 0.873967 0.210853
vt 0.829378 0.210853
vt 0.843278 0.210853
vt 0.859274 0.171095
vt 0.818272 0.171095
vt 0.823280 0.171095
vn -0.9878 -0.1557 -0.0000
vn -0.8435 0.5372 0.0000
vn 0.0000 0.0000 -1.0000
vn 1.0000 0.0000 0.0000
vn 0.0000 0.0000 1.0000
vn -0.0034 1.0000 0.0000
vn 0.7619 0.6477 0.0000
vn 0.2668 0.9637 0.0000
vn 0.0000 -1.0000 -0.0000
vn 0.9830 0.1834 0.0000
vn 0.8533 0.5213 -0.0000
vn 0.6213 0.7835 0.0000
vn 0.3253 0.9456 0.0000
vn 0.0000 1.0000 0.0000
vn -0.3253 0.9456 0.0000
vn -0.6213 0.7835 0.0000
vn -0.8534 0.5213 0.0000
vn -0.9830 0.1834 0.0000
vn -0.9830 -0.1834 -0.0000
vn -0.8533 -0.5213 0.0000
vn -0.6213 -0.7835 0.0000
vn -0.3253 -0.9456 0.0000
vn 0.3253 -0.9456 0.0000
vn 0.6213 -0.7835 0.0000
vn 0.8534 -0.5213 -0.0000
vn 0.9830 -0.1834 -0.0000
vn 0.8534 0.5213 0.0000
vn -0.8534 -0.5213 0.0000
g CAR_03_CAR_03_CAR_02
usemtl CAR_02
s off
f 2/1/1 4/2/1 1/3/1
f 5/4/2 3/5/2 2/1/2
f 4/6/3 7/7/3 8/8/3
f 7/7/3 10/9/3 8/8/3
f 9/10/3 12/11/3 10/9/3
f 6/12/3 7/7/3 3/13/3
f 7/7/3 14/14/3 9/10/3
f 9/10/3 15/15/3 11/16/3
f 11/17/4 17/18/4 12/19/4
f 15/20/4 16/21/4 11/17/4
f 17/22/5 19/23/5 20/24/5
f 19/23/5 22/25/5 20/24/5
f 21/26/5 1/27/5 22/25/5
f 18/28/5 19/23/5 16/29/5
f 23/30/5 21/26/5 19/23/5
f 21/26/5 5/31/5 2/32/5
f 5/33/6 13/34/6 6/35/6
f 24/36/7 14/37/7 13/34/7
f 18/38/8 14/37/8 23/39/8
f 20/40/9 12/41/9 17/42/9
f 22/43/9 10/44/9 20/40/9
f 1/45/9 8/46/9 22/43/9
f 25/47/5 26/48/5 27/49/5
f 28/50/10 27/51/10 26/52/10
f 28/53/3 30/54/3 29/55/3
f 25/47/5 27/49/5 31/56/5
f 29/57/11 31/58/11 27/51/11
f 29/55/3 30/54/3 32/59/3
f 25/47/5 31/56/5 33/60/5
f 32/61/12 33/62/12 31/58/12
f 32/59/3 30/54/3 34/63/3
f 25/47/5 33/60/5 35/64/5
f 34/65/13 35/66/13 33/62/13
f 34/63/3 30/54/3 36/67/3
f 25/47/5 35/64/5 37/68/5
f 36/69/14 37/70/14 35/71/14
f 36/67/3 30/54/3 38/72/3
f 25/47/5 37/68/5 39/73/5
f 38/74/15 39/75/15 37/70/15
f 38/72/3 30/54/3 40/76/3
f 25/47/5 39/73/5 41/77/5
f 40/78/16 41/79/16 39/75/16
f 40/76/3 30/54/3 42/80/3
f 25/47/5 41/77/5 43/81/5
f 42/82/17 43/83/17 41/79/17
f 42/80/3 30/54/3 44/84/3
f 25/47/5 43/81/5 45/85/5
f 44/86/18 45/87/18 43/83/18
f 44/84/3 30/54/3 46/88/3
f 25/47/5 45/85/5 47/89/5
f 46/90/19 47/91/19 45/87/19
f 46/88/3 30/54/3 48/92/3
f 25/47/5 47/89/5 49/93/5
f 48/94/20 49/95/20 47/91/20
f 48/92/3 30/54/3 50/96/3
f 25/47/5 49/93/5 51/97/5
f 50/98/21 51/99/21 49/95/21
f 50/96/3 30/54/3 52/100/3
f 25/47/5 51/97/5 53/101/5
f 51/99/22 54/102/22 53/103/22
f 52/100/3 30/54/3 54/104/3
f 25/47/5 53/101/5 55/105/5
f 53/103/9 56/106/9 55/107/9
f 54/104/3 30/54/3 56/108/3
f 25/47/5 55/105/5 57/109/5
f 56/106/23 57/110/23 55/107/23
f 56/108/3 30/54/3 58/111/3
f 25/47/5 57/109/5 59/112/5
f 58/113/24 59/114/24 57/110/24
f 58/111/3 30/54/3 60/115/3
f 25/47/5 59/112/5 61/116/5
f 59/114/25 62/117/25 61/118/25
f 60/115/3 30/54/3 62/119/3
f 25/47/5 61/116/5 26/48/5
f 62/117/26 26/52/26 61/118/26
f 62/119/3 30/54/3 28/53/3
f 63/120/5 64/121/5 65/122/5
f 66/123/10 65/124/10 64/125/10
f 66/126/3 68/127/3 67/128/3
f 63/120/5 65/122/5 69/129/5
f 67/130/27 69/131/27 65/124/27
f 67/128/3 68/127/3 70/132/3
f 63/120/5 69/129/5 71/133/5
f 70/134/12 71/135/12 69/131/12
f 70/132/3 68/127/3 72/136/3
f 63/120/5 71/133/5 73/137/5
f 72/138/13 73/139/13 71/135/13
f 72/136/3 68/127/3 74/140/3
f 63/120/5 73/137/5 75/141/5
f 74/142/14 75/143/14 73/139/14
f 74/140/3 68/127/3 76/144/3
f 63/120/5 75/141/5 77/145/5
f 76/146/15 77/147/15 75/143/15
f 76/144/3 68/127/3 78/148/3
f 63/120/5 77/145/5 79/149/5
f 78/150/16 79/151/16 77/147/16
f 78/148/3 68/127/3 80/152/3
f 63/120/5 79/149/5 81/153/5
f 80/154/17 81/155/17 79/156/17
f 80/152/3 68/127/3 82/157/3
f 63/120/5 81/153/5 83/158/5
f 82/159/18 83/160/18 81/155/18
f 82/157/3 68/127/3 84/161/3
f 63/120/5 83/158/5 85/162/5
f 83/160/19 86/163/19 85/164/19
f 84/161/3 68/127/3 86/165/3
f 63/120/5 85/162/5 87/166/5
f 86/163/28 87/167/28 85/164/28
f 86/165/3 68/127/3 88/168/3
f 63/120/5 87/166/5 89/169/5
f 88/170/21 89/171/21 87/167/21
f 88/168/3 68/127/3 90/172/3
f 63/120/5 89/169/5 91/173/5
f 90/174/22 91/175/22 89/171/22
f 90/172/3 68/127/3 92/176/3
f 63/120/5 91/173/5 93/177/5
f 92/178/9 93/179/9 91/175/9
f 92/176/3 68/127/3 94/180/3
f 63/120/5 93/177/5 95/181/5
f 94/182/23 95/183/23 93/179/23
f 94/180/3 68/127/3 96/184/3
f 63/120/5 95/181/5 97/185/5
f 95/183/24 98/186/24 97/187/24
f 96/184/3 68/127/3 98/188/3
f 63/120/5 97/185/5 99/189/5
f 98/186/25 99/190/25 97/187/25
f 98/188/3 68/127/3 100/191/3
f 63/120/5 99/189/5 64/121/5
f 100/192/26 64/125/26 99/190/26
f 100/191/3 68/127/3 66/126/3
f 101/193/5 102/194/5 103/195/5
f 104/196/10 103/197/10 102/198/10
f 104/199/3 106/200/3 105/201/3
f 101/193/5 103/195/5 107/202/5
f 105/203/27 107/204/27 103/197/27
f 105/201/3 106/200/3 108/205/3
f 101/193/5 107/202/5 109/206/5
f 108/207/12 109/208/12 107/204/12
f 108/205/3 106/200/3 110/209/3
f 101/193/5 109/206/5 111/210/5
f 110/211/13 111/212/13 109/208/13
f 110/209/3 106/200/3 112/213/3
f 101/193/5 111/210/5 113/214/5
f 112/215/14 113/216/14 111/212/14
f 112/213/3 106/200/3 114/217/3
f 101/193/5 113/214/5 115/218/5
f 113/216/15 116/219/15 115/220/15
f 114/217/3 106/200/3 116/221/3
f 101/193/5 115/218/5 117/222/5
f 116/219/16 117/223/16 115/220/16
f 116/221/3 106/200/3 118/224/3
f 101/193/5 117/222/5 119/225/5
f 118/226/17 119/227/17 117/228/17
f 118/224/3 106/200/3 120/229/3
f 101/193/5 119/225/5 121/230/5
f 120/231/18 121/232/18 119/227/18
f 120/229/3 106/200/3 122/233/3
f 101/193/5 121/230/5 123/234/5
f 122/235/19 123/236/19 121/232/19
f 122/233/3 106/200/3 124/237/3
f 101/193/5 123/234/5 125/238/5
f 124/239/28 125/240/28 123/236/28
f 124/237/3 106/200/3 126/241/3
f 101/193/5 125/238/5 127/242/5
f 126/243/21 127/244/21 125/240/21
f 126/241/3 106/200/3 128/245/3
f 101/193/5 127/242/5 129/246/5
f 127/244/22 130/247/22 129/248/22
f 128/245/3 106/200/3 130/249/3
f 101/193/5 129/246/5 131/250/5
f 130/247/9 131/251/9 129/248/9
f 130/249/3 106/200/3 132/252/3
f 101/193/5 131/250/5 133/253/5
f 132/254/23 133/255/23 131/251/23
f 132/252/3 106/200/3 134/256/3
f 101/193/5 133/253/5 135/257/5
f 134/258/24 135/259/24 133/255/24
f 134/256/3 106/200/3 136/260/3
f 101/193/5 135/257/5 137/261/5
f 135/259/25 138/262/25 137/263/25
f 136/260/3 106/200/3 138/264/3
f 101/193/5 137/261/5 102/194/5
f 138/262/26 102/198/26 137/263/26
f 138/264/3 106/200/3 104/199/3
f 139/265/5 140/266/5 141/267/5
f 142/268/10 141/269/10 140/270/10
f 142/271/3 144/272/3 143/273/3
f 139/265/5 141/267/5 145/274/5
f 143/275/11 145/276/11 141/269/11
f 143/273/3 144/272/3 146/277/3
f 139/265/5 145/274/5 147/278/5
f 146/279/12 147/280/12 145/276/12
f 146/277/3 144/272/3 148/281/3
f 139/265/5 147/278/5 149/282/5
f 148/283/13 149/284/13 147/280/13
f 148/281/3 144/272/3 150/285/3
f 139/265/5 149/282/5 151/286/5
f 150/287/14 151/288/14 149/284/14
f 150/285/3 144/272/3 152/289/3
f 139/265/5 151/286/5 153/290/5
f 152/291/15 153/292/15 151/288/15
f 152/289/3 144/272/3 154/293/3
f 139/265/5 153/290/5 155/294/5
f 154/295/16 155/296/16 153/292/16
f 154/293/3 144/272/3 156/297/3
f 139/265/5 155/294/5 157/298/5
f 156/299/17 157/300/17 155/301/17
f 156/297/3 144/272/3 158/302/3
f 139/265/5 157/298/5 159/303/5
f 158/304/18 159/305/18 157/300/18
f 158/302/3 144/272/3 160/306/3
f 139/265/5 159/303/5 161/307/5
f 159/305/19 162/308/19 161/309/19
f 160/306/3 144/272/3 162/310/3
f 139/265/5 161/307/5 163/311/5
f 162/308/28 163/312/28 161/309/28
f 162/310/3 144/272/3 164/313/3
f 139/265/5 163/311/5 165/314/5
f 163/312/21 166/315/21 165/316/21
f 164/313/3 144/272/3 166/317/3
f 139/265/5 165/314/5 167/318/5
f 165/316/22 168/319/22 167/320/22
f 166/317/3 144/272/3 168/321/3
f 139/265/5 167/318/5 169/322/5
f 167/320/9 170/323/9 169/324/9
f 168/321/3 144/272/3 170/325/3
f 139/265/5 169/322/5 171/326/5
f 170/323/23 171/327/23 169/324/23
f 170/325/3 144/272/3 172/328/3
f 139/265/5 171/326/5 173/329/5
f 172/330/24 173/331/24 171/327/24
f 172/328/3 144/272/3 174/332/3
f 139/265/5 173/329/5 175/333/5
f 174/334/25 175/335/25 173/331/25
f 174/332/3 144/272/3 176/336/3
f 139/265/5 175/333/5 140/266/5
f 176/337/26 140/270/26 175/335/26
f 176/336/3 144/272/3 142/271/3
f 2/1/1 3/5/1 4/2/1
f 5/4/2 6/338/2 3/5/2
f 4/6/3 3/13/3 7/7/3
f 7/7/3 9/10/3 10/9/3
f 9/10/3 11/16/3 12/11/3
f 6/12/3 13/339/3 7/7/3
f 7/7/3 13/339/3 14/14/3
f 9/10/3 14/14/3 15/15/3
f 11/17/4 16/21/4 17/18/4
f 15/20/4 18/340/4 16/21/4
f 17/22/5 16/29/5 19/23/5
f 19/23/5 21/26/5 22/25/5
f 21/26/5 2/32/5 1/27/5
f 18/28/5 23/30/5 19/23/5
f 23/30/5 24/341/5 21/26/5
f 21/26/5 24/341/5 5/31/5
f 5/33/6 24/36/6 13/34/6
f 24/36/7 23/39/7 14/37/7
f 18/38/8 15/342/8 14/37/8
f 20/40/9 10/44/9 12/41/9
f 22/43/9 8/46/9 10/44/9
f 1/45/9 4/343/9 8/46/9
f 28/50/10 29/57/10 27/51/10
f 29/57/27 32/61/27 31/58/27
f 32/61/12 34/65/12 33/62/12
f 34/65/13 36/344/13 35/66/13
f 36/69/14 38/74/14 37/70/14
f 38/74/15 40/78/15 39/75/15
f 40/78/16 42/82/16 41/79/16
f 42/82/17 44/86/17 43/83/17
f 44/86/18 46/90/18 45/87/18
f 46/90/19 48/94/19 47/91/19
f 48/94/28 50/98/28 49/95/28
f 50/98/21 52/345/21 51/99/21
f 51/99/22 52/345/22 54/102/22
f 53/103/9 54/102/9 56/106/9
f 56/106/23 58/113/23 57/110/23
f 58/113/24 60/346/24 59/114/24
f 59/114/25 60/346/25 62/117/25
f 62/117/26 28/50/26 26/52/26
f 66/123/10 67/130/10 65/124/10
f 67/130/27 70/134/27 69/131/27
f 70/134/12 72/138/12 71/135/12
f 72/138/13 74/142/13 73/139/13
f 74/142/14 76/146/14 75/143/14
f 76/146/15 78/150/15 77/147/15
f 78/150/16 80/347/16 79/151/16
f 80/154/17 82/159/17 81/155/17
f 82/159/18 84/348/18 83/160/18
f 83/160/19 84/348/19 86/163/19
f 86/163/28 88/170/28 87/167/28
f 88/170/21 90/174/21 89/171/21
f 90/174/22 92/178/22 91/175/22
f 92/178/9 94/182/9 93/179/9
f 94/182/23 96/349/23 95/183/23
f 95/183/24 96/349/24 98/186/24
f 98/186/25 100/192/25 99/190/25
f 100/192/26 66/123/26 64/125/26
f 104/196/10 105/203/10 103/197/10
f 105/203/27 108/207/27 107/204/27
f 108/207/12 110/211/12 109/208/12
f 110/211/13 112/215/13 111/212/13
f 112/215/14 114/350/14 113/216/14
f 113/216/15 114/350/15 116/219/15
f 116/219/16 118/351/16 117/223/16
f 118/226/17 120/231/17 119/227/17
f 120/231/18 122/235/18 121/232/18
f 122/235/19 124/239/19 123/236/19
f 124/239/28 126/243/28 125/240/28
f 126/243/21 128/352/21 127/244/21
f 127/244/22 128/352/22 130/247/22
f 130/247/9 132/254/9 131/251/9
f 132/254/23 134/258/23 133/255/23
f 134/258/24 136/353/24 135/259/24
f 135/259/25 136/353/25 138/262/25
f 138/262/26 104/196/26 102/198/26
f 142/268/10 143/275/10 141/269/10
f 143/275/27 146/279/27 145/276/27
f 146/279/12 148/283/12 147/280/12
f 148/283/13 150/287/13 149/284/13
f 150/287/14 152/291/14 151/288/14
f 152/291/15 154/295/15 153/292/15
f 154/295/16 156/354/16 155/296/16
f 156/299/17 158/304/17 157/300/17
f 158/304/18 160/355/18 159/305/18
f 159/305/19 160/355/19 162/308/19
f 162/308/28 164/356/28 163/312/28
f 163/312/21 164/356/21 166/315/21
f 165/316/22 166/315/22 168/319/22
f 167/320/9 168/319/9 170/323/9
f 170/323/23 172/330/23 171/327/23
f 172/330/24 174/334/24 173/331/24
f 174/334/25 176/337/25 175/335/25
f 176/337/26 142/268/26 140/270/26
